<svg xmlns="http://www.w3.org/2000/svg" xmlns:xlink="http://www.w3.org/1999/xlink" width="300" zoomAndPan="magnify" viewBox="0 0 224.87999 109.499999" height="146" preserveAspectRatio="xMidYMid meet" version="1.0"><defs><clipPath id="05d46b9c3d"><path d="M 53.941406 54.5 L 115.71875 54.5 L 115.71875 77.863281 L 53.941406 77.863281 Z M 53.941406 54.5 " clip-rule="nonzero"/></clipPath><clipPath id="f2e89ca7ee"><path d="M 108.507812 64.90625 C 108.199219 65.335938 107.800781 65.699219 107.347656 65.976562 C 107.292969 66.007812 107.238281 66.039062 107.183594 66.070312 L 101.8125 66.070312 C 101.886719 65.683594 101.964844 65.292969 102.042969 64.90625 C 102.367188 63.253906 102.691406 61.601562 103.015625 59.953125 L 108.304688 59.953125 C 108.90625 60.652344 109.273438 61.5625 109.273438 62.558594 C 109.273438 63.433594 108.988281 64.246094 108.507812 64.90625 M 114.429688 58.1875 C 112.992188 55.96875 110.496094 54.5 107.65625 54.5 L 97.410156 54.5 C 97.015625 56.316406 96.617188 58.136719 96.222656 59.953125 C 95.859375 61.601562 95.5 63.253906 95.140625 64.90625 L 69.390625 64.90625 C 70.023438 62.007812 70.65625 59.109375 71.289062 56.210938 L 64.148438 56.210938 L 61.574219 69.277344 C 61.539062 69.464844 61.5 69.652344 61.464844 69.835938 C 61.457031 69.871094 61.453125 69.90625 61.445312 69.941406 C 61.113281 71.519531 59.710938 72.707031 58.035156 72.707031 L 53.941406 72.707031 L 53.941406 77.863281 L 57.6875 77.863281 C 58.453125 77.863281 59.203125 77.785156 59.929688 77.636719 C 63.78125 76.839844 66.898438 74.03125 68.132812 70.355469 L 109.683594 70.355469 C 110.1875 70.226562 110.671875 70.050781 111.128906 69.828125 C 112.480469 69.183594 113.621094 68.175781 114.429688 66.925781 C 115.242188 65.667969 115.714844 64.167969 115.714844 62.558594 C 115.714844 60.949219 115.242188 59.449219 114.429688 58.1875 " clip-rule="nonzero"/></clipPath><clipPath id="3ca6f0b65c"><path d="M 0.941406 0.5 L 62.71875 0.5 L 62.71875 23.863281 L 0.941406 23.863281 Z M 0.941406 0.5 " clip-rule="nonzero"/></clipPath><clipPath id="0bd969a258"><path d="M 55.507812 10.90625 C 55.199219 11.335938 54.800781 11.699219 54.347656 11.976562 C 54.292969 12.007812 54.238281 12.039062 54.183594 12.070312 L 48.8125 12.070312 C 48.886719 11.683594 48.964844 11.292969 49.042969 10.90625 C 49.367188 9.253906 49.691406 7.601562 50.015625 5.953125 L 55.304688 5.953125 C 55.90625 6.652344 56.273438 7.5625 56.273438 8.558594 C 56.273438 9.433594 55.988281 10.246094 55.507812 10.90625 M 61.429688 4.1875 C 59.992188 1.96875 57.496094 0.5 54.65625 0.5 L 44.410156 0.5 C 44.015625 2.316406 43.617188 4.136719 43.222656 5.953125 C 42.859375 7.601562 42.5 9.253906 42.140625 10.90625 L 16.390625 10.90625 C 17.023438 8.007812 17.65625 5.109375 18.289062 2.210938 L 11.148438 2.210938 L 8.574219 15.277344 C 8.539062 15.464844 8.5 15.652344 8.464844 15.835938 C 8.457031 15.871094 8.453125 15.90625 8.445312 15.941406 C 8.113281 17.519531 6.710938 18.707031 5.035156 18.707031 L 0.941406 18.707031 L 0.941406 23.863281 L 4.6875 23.863281 C 5.453125 23.863281 6.203125 23.785156 6.929688 23.636719 C 10.78125 22.839844 13.898438 20.03125 15.132812 16.355469 L 56.683594 16.355469 C 57.1875 16.226562 57.671875 16.050781 58.128906 15.828125 C 59.480469 15.183594 60.621094 14.175781 61.429688 12.925781 C 62.242188 11.667969 62.714844 10.167969 62.714844 8.558594 C 62.714844 6.949219 62.242188 5.449219 61.429688 4.1875 " clip-rule="nonzero"/></clipPath><clipPath id="9a7bd05b5f"><rect x="0" width="63" y="0" height="24"/></clipPath><clipPath id="dc0e44a061"><path d="M 79.65625 27.515625 L 109.71875 27.515625 L 109.71875 49.175781 L 79.65625 49.175781 Z M 79.65625 27.515625 " clip-rule="nonzero"/></clipPath><clipPath id="0f1de63984"><path d="M 109.671875 27.519531 C 108.25 34.738281 106.832031 41.957031 105.410156 49.175781 L 98.269531 49.175781 C 98.605469 47.628906 98.941406 46.085938 99.277344 44.539062 C 99.609375 43.039062 99.933594 41.535156 100.261719 40.035156 L 97.007812 43.863281 L 96.433594 44.539062 L 91.386719 44.539062 L 90.699219 42.871094 L 88.917969 38.570312 C 88.527344 40.558594 88.136719 42.550781 87.742188 44.539062 C 87.4375 46.085938 87.136719 47.628906 86.832031 49.175781 L 79.6875 49.175781 C 81.265625 41.957031 82.839844 34.738281 84.414062 27.519531 L 91.09375 27.519531 C 91.003906 27.980469 90.914062 28.441406 90.820312 28.90625 L 94.664062 38.203125 L 102.734375 28.707031 C 102.820312 28.3125 102.910156 27.914062 102.996094 27.519531 Z M 109.671875 27.519531 " clip-rule="nonzero"/></clipPath><clipPath id="7bb435ff85"><path d="M 0.65625 0.515625 L 30.71875 0.515625 L 30.71875 22.175781 L 0.65625 22.175781 Z M 0.65625 0.515625 " clip-rule="nonzero"/></clipPath><clipPath id="98f2bf5963"><path d="M 30.671875 0.519531 C 29.25 7.738281 27.832031 14.957031 26.410156 22.175781 L 19.269531 22.175781 C 19.605469 20.628906 19.941406 19.085938 20.277344 17.539062 C 20.609375 16.039062 20.933594 14.535156 21.261719 13.035156 L 18.007812 16.863281 L 17.433594 17.539062 L 12.386719 17.539062 L 11.699219 15.871094 L 9.917969 11.570312 C 9.527344 13.558594 9.136719 15.550781 8.742188 17.539062 C 8.4375 19.085938 8.136719 20.628906 7.832031 22.175781 L 0.6875 22.175781 C 2.265625 14.957031 3.839844 7.738281 5.414062 0.519531 L 12.09375 0.519531 C 12.003906 0.980469 11.914062 1.441406 11.820312 1.90625 L 15.664062 11.203125 L 23.734375 1.707031 C 23.820312 1.3125 23.910156 0.914062 23.996094 0.519531 Z M 30.671875 0.519531 " clip-rule="nonzero"/></clipPath><clipPath id="b556f2c56a"><rect x="0" width="31" y="0" height="23"/></clipPath><clipPath id="8bf2dd4091"><path d="M 109.671875 27.515625 L 132.714844 27.515625 L 132.714844 49.175781 L 109.671875 49.175781 Z M 109.671875 27.515625 " clip-rule="nonzero"/></clipPath><clipPath id="4c97fcd859"><path d="M 124.332031 38.996094 C 124.28125 39.027344 124.226562 39.058594 124.171875 39.089844 L 118.800781 39.089844 C 118.875 38.699219 118.953125 38.3125 119.03125 37.925781 C 119.355469 36.273438 119.679688 34.625 120.003906 32.972656 L 125.292969 32.972656 C 125.898438 33.671875 126.261719 34.582031 126.261719 35.578125 C 126.261719 37.027344 125.488281 38.296875 124.335938 38.996094 M 131.414062 31.210938 C 129.980469 28.988281 127.484375 27.519531 124.644531 27.519531 L 114.398438 27.519531 C 114.003906 29.335938 113.605469 31.152344 113.210938 32.972656 C 112.03125 38.371094 110.851562 43.773438 109.671875 49.175781 L 116.816406 49.175781 C 117.117188 47.628906 117.421875 46.085938 117.726562 44.539062 L 120.917969 44.539062 L 123.097656 49.175781 L 129.125 49.175781 L 126.941406 44.539062 L 126.425781 43.4375 C 128.511719 42.96875 130.292969 41.6875 131.417969 39.945312 C 132.230469 38.6875 132.703125 37.1875 132.703125 35.578125 C 132.703125 33.96875 132.230469 32.46875 131.417969 31.207031 " clip-rule="nonzero"/></clipPath><clipPath id="1fe9a30eb8"><path d="M 0.671875 0.515625 L 23.714844 0.515625 L 23.714844 22.175781 L 0.671875 22.175781 Z M 0.671875 0.515625 " clip-rule="nonzero"/></clipPath><clipPath id="9d27a6058e"><path d="M 15.332031 11.996094 C 15.28125 12.027344 15.226562 12.058594 15.171875 12.089844 L 9.800781 12.089844 C 9.875 11.699219 9.953125 11.3125 10.03125 10.925781 C 10.355469 9.273438 10.679688 7.625 11.003906 5.972656 L 16.292969 5.972656 C 16.898438 6.671875 17.261719 7.582031 17.261719 8.578125 C 17.261719 10.027344 16.488281 11.296875 15.335938 11.996094 M 22.414062 4.210938 C 20.980469 1.988281 18.484375 0.519531 15.644531 0.519531 L 5.398438 0.519531 C 5.003906 2.335938 4.605469 4.152344 4.210938 5.972656 C 3.03125 11.371094 1.851562 16.773438 0.671875 22.175781 L 7.816406 22.175781 C 8.117188 20.628906 8.421875 19.085938 8.726562 17.539062 L 11.917969 17.539062 L 14.097656 22.175781 L 20.125 22.175781 L 17.941406 17.539062 L 17.425781 16.4375 C 19.511719 15.96875 21.292969 14.6875 22.417969 12.945312 C 23.230469 11.6875 23.703125 10.1875 23.703125 8.578125 C 23.703125 6.96875 23.230469 5.46875 22.417969 4.207031 " clip-rule="nonzero"/></clipPath><clipPath id="dc9692e988"><rect x="0" width="24" y="0" height="23"/></clipPath><clipPath id="7cc11ddc6a"><path d="M 54.1875 27.515625 L 79.359375 27.515625 L 79.359375 49.175781 L 54.1875 49.175781 Z M 54.1875 27.515625 " clip-rule="nonzero"/></clipPath><clipPath id="07cbb4e935"><path d="M 70.136719 39.089844 L 63.316406 39.089844 C 63.546875 37.90625 63.78125 36.726562 64.011719 35.542969 C 64.019531 35.507812 64.027344 35.472656 64.035156 35.441406 C 64.367188 33.863281 65.765625 32.675781 67.445312 32.675781 L 71.535156 32.675781 C 71.070312 34.8125 70.601562 36.953125 70.136719 39.089844 M 67.792969 27.515625 C 67.023438 27.515625 66.273438 27.59375 65.550781 27.746094 C 61.300781 28.625 57.945312 31.949219 57.023438 36.179688 C 56.078125 40.511719 55.136719 44.839844 54.1875 49.171875 L 61.332031 49.171875 C 61.433594 48.65625 61.53125 48.144531 61.632812 47.628906 L 62.242188 44.539062 L 68.945312 44.539062 C 68.722656 45.570312 68.496094 46.601562 68.273438 47.628906 C 68.160156 48.144531 68.046875 48.65625 67.9375 49.171875 L 75.078125 49.171875 C 75.179688 48.65625 75.28125 48.144531 75.382812 47.628906 C 75.582031 46.601562 75.785156 45.570312 75.988281 44.539062 C 76.0625 44.164062 76.136719 43.785156 76.210938 43.40625 C 76.539062 41.738281 76.867188 40.070312 77.199219 38.402344 C 77.914062 34.773438 78.625 31.144531 79.339844 27.515625 Z M 67.792969 27.515625 " clip-rule="nonzero"/></clipPath><clipPath id="d4960e0c1d"><path d="M 0.1875 0.515625 L 25.359375 0.515625 L 25.359375 22.175781 L 0.1875 22.175781 Z M 0.1875 0.515625 " clip-rule="nonzero"/></clipPath><clipPath id="ea448f2c91"><path d="M 16.136719 12.089844 L 9.316406 12.089844 C 9.546875 10.90625 9.78125 9.726562 10.011719 8.542969 C 10.019531 8.507812 10.027344 8.472656 10.035156 8.441406 C 10.367188 6.863281 11.765625 5.675781 13.445312 5.675781 L 17.535156 5.675781 C 17.070312 7.8125 16.601562 9.953125 16.136719 12.089844 M 13.792969 0.515625 C 13.023438 0.515625 12.273438 0.59375 11.550781 0.746094 C 7.300781 1.625 3.945312 4.949219 3.023438 9.179688 C 2.078125 13.511719 1.136719 17.839844 0.1875 22.171875 L 7.332031 22.171875 C 7.433594 21.65625 7.53125 21.144531 7.632812 20.628906 L 8.242188 17.539062 L 14.945312 17.539062 C 14.722656 18.570312 14.496094 19.601562 14.273438 20.628906 C 14.160156 21.144531 14.046875 21.65625 13.9375 22.171875 L 21.078125 22.171875 C 21.179688 21.65625 21.28125 21.144531 21.382812 20.628906 C 21.582031 19.601562 21.785156 18.570312 21.988281 17.539062 C 22.0625 17.164062 22.136719 16.785156 22.210938 16.40625 C 22.539062 14.738281 22.867188 13.070312 23.199219 11.402344 C 23.914062 7.773438 24.625 4.144531 25.339844 0.515625 Z M 13.792969 0.515625 " clip-rule="nonzero"/></clipPath><clipPath id="c7bac9ecbf"><rect x="0" width="26" y="0" height="23"/></clipPath><clipPath id="8435223d9f"><path d="M 120.226562 59.464844 L 130.15625 59.464844 L 130.15625 73.453125 L 120.226562 73.453125 Z M 120.226562 59.464844 " clip-rule="nonzero"/></clipPath><clipPath id="c563554b6b"><path d="M 130.117188 59.464844 C 129.203125 64.121094 128.285156 68.777344 127.367188 73.433594 L 120.226562 73.433594 C 121.242188 68.777344 122.257812 64.121094 123.273438 59.464844 Z M 130.117188 59.464844 " clip-rule="nonzero"/></clipPath><clipPath id="eb3f272bb4"><path d="M 0.226562 0.464844 L 10.15625 0.464844 L 10.15625 14.453125 L 0.226562 14.453125 Z M 0.226562 0.464844 " clip-rule="nonzero"/></clipPath><clipPath id="77fa89779e"><path d="M 10.117188 0.464844 C 9.203125 5.121094 8.285156 9.777344 7.367188 14.433594 L 0.226562 14.433594 C 1.242188 9.777344 2.257812 5.121094 3.273438 0.464844 Z M 10.117188 0.464844 " clip-rule="nonzero"/></clipPath><clipPath id="156614d933"><rect x="0" width="11" y="0" height="15"/></clipPath><clipPath id="89ff384e9f"><path d="M 120.585938 52.390625 L 132.964844 52.390625 L 132.964844 56.742188 L 120.585938 56.742188 Z M 120.585938 52.390625 " clip-rule="nonzero"/></clipPath><clipPath id="49762a6564"><path d="M 120.585938 54.5 C 121.328125 55.242188 122.070312 55.984375 122.8125 56.726562 C 123.34375 56.230469 124.15625 55.648438 125.175781 55.613281 C 126.402344 55.566406 127.015625 56.347656 128.050781 56.621094 C 129.058594 56.890625 130.605469 56.714844 132.949219 54.738281 C 132.277344 53.996094 131.605469 53.253906 130.929688 52.511719 C 130.398438 52.980469 129.542969 53.570312 128.464844 53.609375 C 127.015625 53.65625 126.351562 52.664062 125.0625 52.449219 C 124.105469 52.289062 122.652344 52.527344 120.585938 54.5 " clip-rule="nonzero"/></clipPath><clipPath id="78b67d76a6"><path d="M 0.585938 0.390625 L 12.964844 0.390625 L 12.964844 4.742188 L 0.585938 4.742188 Z M 0.585938 0.390625 " clip-rule="nonzero"/></clipPath><clipPath id="aeafc7df2e"><path d="M 0.585938 2.5 C 1.328125 3.242188 2.070312 3.984375 2.8125 4.726562 C 3.34375 4.230469 4.15625 3.648438 5.175781 3.613281 C 6.402344 3.566406 7.015625 4.347656 8.050781 4.621094 C 9.058594 4.890625 10.605469 4.714844 12.949219 2.738281 C 12.277344 1.996094 11.605469 1.253906 10.929688 0.511719 C 10.398438 0.980469 9.542969 1.570312 8.464844 1.609375 C 7.015625 1.65625 6.351562 0.664062 5.0625 0.449219 C 4.105469 0.289062 2.652344 0.527344 0.585938 2.5 " clip-rule="nonzero"/></clipPath><clipPath id="23208d88ef"><rect x="0" width="13" y="0" height="5"/></clipPath><clipPath id="6c5072d455"><path d="M 134.546875 25.949219 L 176.910156 25.949219 L 176.910156 78.90625 L 134.546875 78.90625 Z M 134.546875 25.949219 " clip-rule="nonzero"/></clipPath><clipPath id="1345210eb1"><path d="M 134.546875 36.6875 L 134.546875 25.949219 L 175.183594 25.949219 C 175.421875 26.1875 175.796875 26.605469 176.125 27.195312 C 178.257812 31.027344 175.191406 36.46875 174.15625 38.382812 C 170.8125 44.554688 164.175781 59.015625 155.097656 78.867188 L 139.632812 78.867188 C 149.1875 64.824219 158.742188 50.78125 168.296875 36.738281 C 157.046875 36.722656 145.796875 36.707031 134.546875 36.6875 " clip-rule="nonzero"/></clipPath><clipPath id="872d57bbc3"><path d="M 0.546875 0.949219 L 42.910156 0.949219 L 42.910156 53.90625 L 0.546875 53.90625 Z M 0.546875 0.949219 " clip-rule="nonzero"/></clipPath><clipPath id="e6bf95f1cb"><path d="M 0.546875 11.6875 L 0.546875 0.949219 L 41.183594 0.949219 C 41.421875 1.1875 41.796875 1.605469 42.125 2.195312 C 44.257812 6.027344 41.191406 11.46875 40.15625 13.382812 C 36.8125 19.554688 30.175781 34.015625 21.097656 53.867188 L 5.632812 53.867188 C 15.1875 39.824219 24.742188 25.78125 34.296875 11.738281 C 23.046875 11.722656 11.796875 11.707031 0.546875 11.6875 " clip-rule="nonzero"/></clipPath><clipPath id="c5ec6a3bb6"><rect x="0" width="43" y="0" height="54"/></clipPath></defs><g clip-path="url(#05d46b9c3d)"><g clip-path="url(#f2e89ca7ee)"><g transform="matrix(1, 0, 0, 1, 53, 54)"><g clip-path="url(#9a7bd05b5f)"><g clip-path="url(#3ca6f0b65c)"><g clip-path="url(#0bd969a258)"><path fill="#083f5b" d="M 0.941406 0.5 L 62.71875 0.5 L 62.71875 23.863281 L 0.941406 23.863281 Z M 0.941406 0.5 " fill-opacity="1" fill-rule="nonzero"/></g></g></g></g></g></g><g clip-path="url(#dc0e44a061)"><g clip-path="url(#0f1de63984)"><g transform="matrix(1, 0, 0, 1, 79, 27)"><g clip-path="url(#b556f2c56a)"><g clip-path="url(#7bb435ff85)"><g clip-path="url(#98f2bf5963)"><path fill="#083f5b" d="M -25.058594 0.269531 L 53.960938 0.269531 L 53.960938 22.421875 L -25.058594 22.421875 Z M -25.058594 0.269531 " fill-opacity="1" fill-rule="nonzero"/></g></g></g></g></g></g><g clip-path="url(#8bf2dd4091)"><g clip-path="url(#4c97fcd859)"><g transform="matrix(1, 0, 0, 1, 109, 27)"><g clip-path="url(#dc9692e988)"><g clip-path="url(#1fe9a30eb8)"><g clip-path="url(#9d27a6058e)"><path fill="#083f5b" d="M -55.058594 0.269531 L 23.960938 0.269531 L 23.960938 22.421875 L -55.058594 22.421875 Z M -55.058594 0.269531 " fill-opacity="1" fill-rule="nonzero"/></g></g></g></g></g></g><g clip-path="url(#7cc11ddc6a)"><g clip-path="url(#07cbb4e935)"><g transform="matrix(1, 0, 0, 1, 54, 27)"><g clip-path="url(#c7bac9ecbf)"><g clip-path="url(#d4960e0c1d)"><g clip-path="url(#ea448f2c91)"><path fill="#083f5b" d="M -0.0585938 0.269531 L 78.960938 0.269531 L 78.960938 22.421875 L -0.0585938 22.421875 Z M -0.0585938 0.269531 " fill-opacity="1" fill-rule="nonzero"/></g></g></g></g></g></g><g clip-path="url(#8435223d9f)"><g clip-path="url(#c563554b6b)"><g transform="matrix(1, 0, 0, 1, 120, 59)"><g clip-path="url(#156614d933)"><g clip-path="url(#eb3f272bb4)"><g clip-path="url(#77fa89779e)"><path fill="#083f5b" d="M 0.226562 0.464844 L 10.117188 0.464844 L 10.117188 14.414062 L 0.226562 14.414062 Z M 0.226562 0.464844 " fill-opacity="1" fill-rule="nonzero"/></g></g></g></g></g></g><g clip-path="url(#89ff384e9f)"><g clip-path="url(#49762a6564)"><g transform="matrix(1, 0, 0, 1, 120, 52)"><g clip-path="url(#23208d88ef)"><g clip-path="url(#78b67d76a6)"><g clip-path="url(#aeafc7df2e)"><path fill="#083f5b" d="M 0.585938 0.410156 L 12.945312 0.410156 L 12.945312 4.726562 L 0.585938 4.726562 Z M 0.585938 0.410156 " fill-opacity="1" fill-rule="nonzero"/></g></g></g></g></g></g><g clip-path="url(#6c5072d455)"><g clip-path="url(#1345210eb1)"><g transform="matrix(1, 0, 0, 1, 134, 25)"><g clip-path="url(#c5ec6a3bb6)"><g clip-path="url(#872d57bbc3)"><g clip-path="url(#e6bf95f1cb)"><path fill="#5b9e94" d="M 0.546875 0.949219 L 42.863281 0.949219 L 42.863281 53.859375 L 0.546875 53.859375 Z M 0.546875 0.949219 " fill-opacity="1" fill-rule="nonzero"/></g></g></g></g></g></g></svg>